# xmcd
#
# Track frame offsets: 
#        150
#        19804
#        93461
#        114089
#        178669
#        212574
#
# Disc length: 4155 seconds
#
# Revision: 0
# Processed by: cddbd v1.5.2PL0 Copyright (c) Steve Scherf et al.
# Submitted via: ExactAudioCopy v0.95b3
#
DISCID=44103906
DTITLE=Cream  - Sun Vanishes [Disc 1]
DYEAR=1900
DGENRE=
TTITLE0=Tales Of Brave Ulysses
TTITLE1=N.S.U.
TTITLE2=Sitting On Top Of The World
TTITLE3=Sweet Wine
TTITLE4=Rollin And Tumblin
TTITLE5=Spoonful
EXTD=
EXTT0=
EXTT1=
EXTT2=
EXTT3=
EXTT4=
EXTT5=
PLAYORDER=
